HIERARCHY
ROOT RootJoint
{
    OFFSET   0.000000   0.000000   0.000000
    CHANNELS 6 Xposition Yposition Zposition Xrotation Yrotation Zrotation
    JOINT pelvis_lowerback
    {
        OFFSET   0.000000   0.093605   0.000000
        CHANNELS 3 Xrotation Yrotation Zrotation
        JOINT lowerback_torso
        {
            OFFSET   0.000000   0.100000   0.000000
            CHANNELS 3 Xrotation Yrotation Zrotation
            JOINT torso_head
            {
                OFFSET   0.000000   0.282350   0.000000
                CHANNELS 3 Xrotation Yrotation Zrotation
                End Site
                {
                    OFFSET   0.000000   0.192650   0.000000
                }
            }
            JOINT rTorso_Clavicle
            {
                OFFSET  -0.001000   0.157500   0.000000
                CHANNELS 3 Xrotation Yrotation Zrotation
                JOINT rShoulder
                {
                    OFFSET  -0.117647   0.000000   0.000000
                    CHANNELS 3 Xrotation Yrotation Zrotation
                    JOINT rElbow
                    {
                        OFFSET  -0.245000   0.000000   0.000000
                        CHANNELS 3 Xrotation Yrotation Zrotation
                        JOINT rWrist
                        {
                            OFFSET  -0.240000   0.000000   0.000000
                            CHANNELS 3 Xrotation Yrotation Zrotation
                            End Site
                            {
                                OFFSET  -0.116353  -0.002500   0.000000
                            }
                        }
                    }
                }
            }
            JOINT lTorso_Clavicle
            {
                OFFSET   0.001000   0.157500   0.000000
                CHANNELS 3 Xrotation Yrotation Zrotation
                JOINT lShoulder
                {
                    OFFSET   0.117647   0.000000   0.000000
                    CHANNELS 3 Xrotation Yrotation Zrotation
                    JOINT lElbow
                    {
                        OFFSET   0.245000   0.000000   0.000000
                        CHANNELS 3 Xrotation Yrotation Zrotation
                        JOINT lWrist
                        {
                            OFFSET   0.240000   0.000000   0.000000
                            CHANNELS 3 Xrotation Yrotation Zrotation
                            End Site
                            {
                                OFFSET   0.116353  -0.002500   0.000000
                            }
                        }
                    }
                }
            }
        }
    }
    JOINT rHip
    {
        OFFSET  -0.100000  -0.051395   0.000000
        CHANNELS 3 Xrotation Yrotation Zrotation
        JOINT rKnee
        {
            OFFSET   0.000000  -0.410000   0.000000
            CHANNELS 3 Xrotation Yrotation Zrotation
            JOINT rAnkle
            {
                OFFSET   0.000000  -0.390000   0.000000
                CHANNELS 3 Xrotation Yrotation Zrotation
                JOINT rToeJoint
                {
                    OFFSET   0.000000  -0.050000   0.130000
                    CHANNELS 3 Xrotation Yrotation Zrotation
                    End Site
                    {
                        OFFSET  -0.010000   0.002000   0.060000
                    }
                }
            }
        }
    }
    JOINT lHip
    {
        OFFSET   0.100000  -0.051395   0.000000
        CHANNELS 3 Xrotation Yrotation Zrotation
        JOINT lKnee
        {
            OFFSET   0.000000  -0.410000   0.000000
            CHANNELS 3 Xrotation Yrotation Zrotation
            JOINT lAnkle
            {
                OFFSET   0.000000  -0.390000   0.000000
                CHANNELS 3 Xrotation Yrotation Zrotation
                JOINT lToeJoint
                {
                    OFFSET   0.000000  -0.050000   0.130000
                    CHANNELS 3 Xrotation Yrotation Zrotation
                    End Site
                    {
                        OFFSET   0.010000   0.002000   0.060000
                    }
                }
            }
        }
    }
}
MOTION
Frames: 12
Frame Time:   0.008333
 -2.940804   0.665443   3.072327   0.448972 -51.876039  -3.001785  48.707442  12.186770 -13.947505   5.889384  13.093664 -10.824742  -7.172015  -2.565140  -1.342050  -9.854514  25.511439  -4.571582 -20.368577  36.435568  28.740825   0.005090  70.721693  -0.004883   2.658967   5.469864  -1.251139  -0.130545   5.413869   0.738457  15.876734  11.467896 -44.563460   0.003713 -21.326381   0.005311  -3.874410  -1.950912  -1.516144 -16.167408  -8.078358   5.190025 111.838389   0.056228  -0.048788 -17.281905   0.972200  -0.959901 -17.703818   0.090093  -0.029334 -54.649920   4.143583   7.209897  94.820657   0.002172   0.005792 -40.482517   2.388271   3.317036  -0.655350   0.002859  -0.001789
 -2.949019   0.665372   3.078000   1.251755 -51.153740  -2.472567  48.620568  11.800713 -13.901180   6.067637  12.934781 -10.688960  -7.098052  -2.693034  -1.339176  -9.622413  25.148848  -4.263747 -18.966050  35.880901  28.038397  -0.005202  70.454551   0.003247   2.727175   5.772868  -1.277707  -0.438680   4.811930   0.223083  14.928170  11.017903 -44.159824   0.003450 -21.462100   0.004915  -3.791485  -1.907422  -1.147881 -17.347659  -7.437760   4.755120 113.213842   0.058802  -0.049338 -17.487404   0.257270  -1.173289 -16.451791   0.091763  -0.030880 -54.263559   3.877564   7.105257  94.946509   0.001946   0.005169 -41.800572   1.756630   3.031688  -0.312398   0.002635  -0.001806
 -2.957372   0.665234   3.083836   1.739879 -50.452656  -2.248177  48.588127  11.354896 -13.810974   6.262239  12.708693 -10.528295  -7.018804  -2.800032  -1.324750  -9.374049  24.746592  -3.972391 -17.623482  35.280527  27.371961  -0.013334  70.160321   0.009701   2.791966   5.900940  -1.263028  -0.790702   4.188310  -0.307570  13.989872  10.536945 -43.795056   0.003361 -21.613031   0.004835  -3.717186  -1.918687  -0.756570 -18.638834  -6.807484   4.333837 114.441197   0.059067  -0.049062 -17.690239  -0.414458  -1.380120 -15.330025   0.090763  -0.031823 -53.786508   3.602255   7.088129  95.220511   0.002103   0.005325 -42.801429   1.211848   2.798509  -0.401024   0.002064  -0.001421
 -2.965856   0.664943   3.089811   2.011557 -49.777560  -2.233264  48.559407  10.845163 -13.697962   6.452896  12.409152 -10.348387  -6.940181  -2.899339  -1.307540  -9.119385  24.327606  -3.689390 -16.360656  34.674066  26.762917  -0.018745  69.868517   0.014073   2.850656   5.913470  -1.227101  -1.156631   3.564063  -0.819658  13.087092  10.050047 -43.461788   0.003359 -21.769904   0.004972  -3.647279  -2.009659  -0.389856 -20.037272  -6.211769   3.915339 115.550467   0.057526  -0.048129 -17.886606  -1.040693  -1.578116 -14.313433   0.087673  -0.032359 -53.152943   3.290390   7.125561  95.516290   0.002221   0.005542 -43.858494   0.690479   2.559351  -0.470669   0.001627  -0.001122
 -2.974453   0.664438   3.095907   2.111214 -49.129356  -2.383920  48.521861  10.285289 -13.569006   6.630326  12.048666 -10.155055  -6.863908  -2.993244  -1.291394  -8.865370  23.899851  -3.417524 -15.177981  34.072382  26.207835  -0.021829  69.585892   0.016683   2.904903   5.859128  -1.175767  -1.526874   2.946117  -1.299862  12.223919   9.565905 -43.149474   0.003393 -21.928488   0.005219  -3.579485  -2.162318  -0.040722 -21.510046  -5.653577   3.504260 116.556692   0.054750  -0.046627 -18.076072  -1.624199  -1.766697 -13.391909   0.083057  -0.032469 -52.391658   2.947768   7.213612  95.839581   0.002311   0.005825 -44.970660   0.200852   2.312577  -0.525156   0.001288  -0.000892
 -2.983160   0.663683   3.102122   2.065838 -48.505711  -2.668563  48.471849   9.688580 -13.430135   6.790777  11.639875  -9.952739  -6.790716  -3.082293  -1.277380  -8.616797  23.468008  -3.158267 -14.073002  33.480549  25.701463  -0.023079  69.314558   0.017904   2.955804   5.760917  -1.114368  -1.896962   2.338242  -1.743835  11.400610   9.088751 -42.852164   0.003439 -22.086527   0.005494  -3.512671  -2.362137   0.301690 -23.020534  -5.129863   3.104781 117.470768   0.051225  -0.044645 -18.258260  -2.167857  -1.945706 -12.555884   0.077463  -0.032134 -51.532127   2.590827   7.351427  96.208545   0.002438   0.006246 -46.091086  -0.242586   2.064075  -0.643929   0.001015  -0.000739
 -2.991980   0.662661   3.108471   1.893272 -47.910863  -3.061287  48.408310   9.068570 -13.289963   6.933660  11.195171  -9.748442  -6.720847  -3.166691  -1.265991  -8.376248  23.036211  -2.911823 -13.042174  32.902239  25.239525  -0.022936  69.055414   0.018063   3.004016   5.631515  -1.046716  -2.263935   1.743800  -2.152449  10.616842   8.621386 -42.567707   0.003486 -22.242412   0.005737  -3.446206  -2.598061   0.642670 -24.536067  -4.634325   2.719491 118.303042   0.047286  -0.042282 -18.432860  -2.674522  -2.115291 -11.796531   0.071305  -0.031386 -50.599125   2.229776   7.535017  96.645822   0.002626   0.006863 -47.157624  -0.641035   1.826109  -0.933584   0.000827  -0.000727
 -3.000153   0.662257   3.114423   2.145520 -47.276145  -3.101428  48.302246   8.645061 -13.039689   6.961988  10.740172  -9.644131  -6.485119  -3.136077  -1.247773  -8.093932  22.414083  -2.789498 -12.003826  31.800867  24.713275  -0.025296  68.524410   0.020367   2.967069   5.936371  -0.908063  -2.681973   1.013684  -2.569090   9.514140   7.867349 -42.008604   0.003739 -22.618267   0.007018  -3.320475  -2.508235   0.793223 -26.945470  -4.196994   2.251456 118.823954   0.041693  -0.037907 -18.856742  -3.102106  -2.106570 -11.052230   0.064395  -0.030847 -49.823081   1.797156   7.639534  96.732841   0.002167   0.005854 -48.405294  -1.080266   1.257731  -0.809582   0.000954  -0.000627
 -3.008372   0.662094   3.120408   2.188390 -46.606684  -3.310938  48.283709   8.180436 -12.740874   7.006440  10.223157  -9.492733  -6.248679  -3.087286  -1.233451  -7.830639  21.746780  -2.696609 -11.023862  30.666166  24.196548  -0.025539  67.963366   0.020900   2.922499   5.945608  -0.803129  -3.143639   0.249891  -2.923300   8.422285   7.086533 -41.448876   0.003673 -23.012129   0.008287  -3.199511  -2.628173   1.002954 -29.514107  -3.793210   1.799484 119.146788   0.035727  -0.032777 -19.266643  -3.499656  -2.102597 -10.403839   0.057525  -0.029455 -48.957228   1.394868   7.791514  96.863156   0.001921   0.005264 -49.351094  -1.469280   0.765093  -0.362929   0.001598  -0.000229
 -3.016689   0.661976   3.126526   2.057719 -45.936730  -3.654874  48.281690   7.658333 -12.415200   7.062751   9.653805  -9.298791  -6.018700  -3.039489  -1.220180  -7.579371  21.074820  -2.609420 -10.113583  29.559641  23.724257  -0.023650  67.418759   0.019535   2.877378   5.803865  -0.710561  -3.605672  -0.505826  -3.223379   7.381560   6.320121 -40.905108   0.003416 -23.396023   0.009394  -3.079429  -2.856898   1.264884 -32.155170  -3.402135   1.367868 119.365603   0.030136  -0.027827 -19.655706  -3.870347  -2.102613  -9.821544   0.051024  -0.027636 -47.923159   0.979170   7.972074  96.957922   0.001660   0.004638 -50.320343  -1.867756   0.282687  -0.503517   0.001050  -0.000240
 -3.025190   0.661817   3.132748   1.796896 -45.275272  -4.104278  48.270884   7.096717 -12.074221   7.114398   9.050171  -9.070349  -5.799502  -2.995810  -1.207469  -7.338339  20.408680  -2.523297  -9.269826  28.494129  23.299705  -0.020295  66.900687   0.016879   2.833255   5.595214  -0.623393  -4.057086  -1.240622  -3.472893   6.398644   5.578573 -40.378827   0.003062 -23.763374   0.010214  -2.959639  -3.135948   1.567166 -34.809347  -3.028323   0.977580 119.520152   0.025161  -0.023337 -20.023480  -4.215862  -2.105353  -9.298074   0.044943  -0.025500 -46.752920   0.547941   8.178388  97.038808   0.001418   0.004068 -51.353626  -2.287085  -0.014616  -0.588457   0.000849  -0.000191
 -3.033892   0.661550   3.139141   1.424712 -44.637155  -4.631053  48.242077   6.513439 -11.725874   7.156112   8.426618  -8.824367  -5.592241  -2.956345  -1.196877  -7.106493  19.751781  -2.437445  -8.486725  27.472613  22.919548  -0.015982  66.411191   0.013365   2.791107   5.354340  -0.535078  -4.493503  -1.947176  -3.685679   5.474549   4.865986 -39.876575   0.002681 -24.112005   0.010669  -2.840409  -3.438790   1.895622 -37.424446  -2.664864   0.620417 119.637353   0.020881  -0.019436 -20.370224  -4.537920  -2.110136  -8.827139   0.039306  -0.023229 -45.484003   0.119895   8.423897  97.148771   0.001242   0.003736 -52.317682  -2.656648  -0.325763  -0.840820   0.000700  -0.000214
